<?xml version="1.0" standalone="no"?>
<svg xmlns="http://www.w3.org/2000/svg" viewBox="0 0 160.921 29" width="160.921" height="29"><g fill="#ff8686" color="#ff8686" transform="translate(0, 0) scale(0.659091)"><svg width="44.0" height="44.0" x="0.0" y="0.0" viewBox="0 0 44 44"><path fill="currentColor" fill-rule="evenodd" d="M38.728 38.728c-4.084 4.085-10.73 4.085-14.814 0l-.444-.397c-.097-.097-.916-.91-1.519-2.168a8.669 8.669 0 0 1-1.513 2.212l-.353.353c-4.084 4.085-10.73 4.085-14.814 0-4.084-4.084-4.084-10.73 0-14.814l11.891-11.89.857.856-11.89 11.891c-3.613 3.612-3.613 9.489 0 13.1 3.611 3.614 9.488 3.614 13.1 0l.371-.372c.938-.973 1.646-2.475 1.698-4.023 0-.045.004-.09.005-.135.01-1.21-.385-2.435-1.398-3.45l-1.888-1.886-.18-.194-3.395-3.393.857-.857 4.739 4.739.397.405c.703.704 1.202 1.403 1.545 2.087.345-.66.834-1.335 1.517-2.018l.065-.073 11.892-11.89a5.851 5.851 0 0 0 0-8.265 5.85 5.85 0 0 0-8.263 0l-.353.354-.857-.857.353-.353c2.75-2.75 7.226-2.75 9.976 0 2.751 2.75 2.751 7.226 0 9.976L24.418 29.558l-.375.377c-2.38 2.38-1.446 5.788.295 7.527l.433.41c3.612 3.613 9.488 3.613 13.1 0 3.613-3.612 3.613-9.489 0-13.1l-.353-.354.857-.857.353.354c4.084 4.084 4.084 10.73 0 14.813zM15.6 10.461l-5.14 5.14-.352-.353a3.639 3.639 0 0 1 0-5.14 3.638 3.638 0 0 1 5.14 0l.352.353zm1.21-1.914a5.849 5.849 0 0 0-8.263 0 5.85 5.85 0 0 0 0 8.263l.352.353-.856.856-.353-.352c-2.75-2.751-2.75-7.227 0-9.978 2.75-2.75 7.226-2.75 9.976 0l11.892 11.892-.857.856L16.81 8.547zM22 16.86L27.138 22l-5.14 5.139L16.86 22 22 16.86zM10.46 28.4l5.14 5.138-.353.353a3.638 3.638 0 0 1-5.139 0 3.639 3.639 0 0 1 0-5.14l.353-.351zm-.78-2.344l-1.134 1.133a5.85 5.85 0 0 0 0 8.264 5.85 5.85 0 0 0 8.263 0l.353-.353c1.741-1.74-.354-3.473-1.362-4.482l-.657-.661-3.12-3.121.856-.856 4.15 4.15.328.329c3.052 3.05.899 5.26.662 5.497l-.353.353c-2.75 2.752-7.226 2.75-9.977 0-2.75-2.75-2.75-7.226 0-9.977l11.892-11.89.856.857-5.92 5.92-4.837 4.837zM28.399 10.46l.353-.353a3.64 3.64 0 0 1 5.14 0 3.64 3.64 0 0 1 0 5.14l-.353.352-5.14-5.14zM5.271 5.27c4.084-4.084 10.73-4.084 14.814 0l11.89 11.89-.856.858L19.23 6.128c-3.613-3.612-9.489-3.612-13.1 0-3.613 3.612-3.613 9.489 0 13.1l.352.353-.857.857-.353-.352C1.187 16 1.187 9.356 5.271 5.27zm28.62 28.62a3.64 3.64 0 0 1-5.14 0l-.352-.352 5.14-5.14.352.352a3.64 3.64 0 0 1 0 5.14zm-9.977-28.62c4.085-4.084 10.73-4.084 14.814 0s4.084 10.73 0 14.814L26.837 31.976c-.91.911-1.132 1.992-.053 3.083l.406.394a5.85 5.85 0 0 0 8.263 0 5.85 5.85 0 0 0 0-8.263l-.352-.353.856-.856.353.353a7.061 7.061 0 0 1 0 9.976c-2.75 2.75-7.227 2.75-9.977 0 0 0-.173-.146-.407-.382-.215-.218-2.358-2.395.055-4.808l11.89-11.891c3.613-3.612 3.613-9.489 0-13.101-3.611-3.612-9.488-3.612-13.1 0l-.353.353-.856-.856.352-.354zM39.938 22l.353-.353c4.945-4.946 4.945-12.992 0-17.938-4.946-4.945-12.992-4.945-17.938 0L22 4.062l-.353-.353c-4.945-4.945-12.992-4.945-17.938 0-4.945 4.946-4.945 12.992 0 17.938l.353.353-.352.353c-4.946 4.945-4.946 12.991 0 17.938 4.945 4.945 12.992 4.945 17.937 0l.353-.353.353.353c4.946 4.945 12.992 4.945 17.938 0 4.945-4.947 4.945-12.993 0-17.938L39.938 22z"></path></svg></g><line x1="41" y1="1" x2="41" y2="28" stroke="#fe0b01" stroke-linecap="round"></line><path fill="#fe0b01" fill-rule="nonzero" d="M4.70 17.21L4.70 17.21Q3.36 17.21 2.29 16.57Q1.22 15.94 0.61 14.82Q0 13.70 0 12.31L0 12.31L0 11.21Q0 11.11 0.10 11.11L0.10 11.11L2.81 11.11Q2.90 11.11 2.90 11.23L2.90 11.23L2.90 12.31Q2.90 13.20 3.41 13.75Q3.91 14.30 4.70 14.30L4.70 14.30Q5.42 14.30 5.95 13.70Q6.48 13.10 6.48 12.31L6.48 12.31L6.48 0.38Q6.48 0.29 6.58 0.29L6.58 0.29L9.26 0.29Q9.36 0.29 9.36 0.41L9.36 0.41L9.38 12.31Q9.38 13.63 8.75 14.75Q8.11 15.86 7.06 16.54Q6 17.21 4.70 17.21ZM15.65 17.21L15.65 17.21Q14.35 17.21 13.28 16.55Q12.22 15.89 11.57 14.80Q10.92 13.70 10.92 12.38L10.92 12.38L10.94 4.78Q10.94 3.46 11.58 2.38Q12.22 1.30 13.30 0.65Q14.38 0 15.65 0L15.65 0Q16.94 0 18 0.65Q19.06 1.30 19.69 2.38Q20.33 3.46 20.33 4.78L20.33 4.78L20.35 12.38Q20.35 13.70 19.72 14.80Q19.08 15.89 18.01 16.55Q16.94 17.21 15.65 17.21ZM15.65 14.30L15.65 14.30Q16.37 14.30 16.91 13.72Q17.45 13.13 17.45 12.38L17.45 12.38L17.42 4.78Q17.42 3.98 16.92 3.43Q16.42 2.88 15.65 2.88L15.65 2.88Q14.90 2.88 14.38 3.42Q13.85 3.96 13.85 4.78L13.85 4.78L13.85 12.38Q13.85 13.18 14.38 13.74Q14.90 14.30 15.65 14.30ZM26.74 17.21L26.74 17.21Q25.46 17.21 24.38 16.55Q23.30 15.89 22.67 14.78Q22.03 13.68 22.03 12.36L22.03 12.36L22.08 0.36Q22.08 0.26 22.18 0.26L22.18 0.26L24.86 0.26Q24.96 0.26 24.96 0.36L24.96 0.36L24.96 12.36Q24.96 13.18 25.48 13.74Q25.99 14.30 26.74 14.30L26.74 14.30Q27.50 14.30 28.02 13.74Q28.54 13.18 28.54 12.36L28.54 12.36L28.54 0.36Q28.54 0.26 28.63 0.26L28.63 0.26L31.32 0.26Q31.42 0.26 31.42 0.36L31.42 0.36L31.46 12.36Q31.46 13.70 30.83 14.81Q30.19 15.91 29.12 16.56Q28.06 17.21 26.74 17.21ZM36.17 16.97L33.46 16.97Q33.36 16.97 33.36 16.85L33.36 16.85L33.41 0.36Q33.41 0.26 33.50 0.26L33.50 0.26L38.35 0.26Q39.65 0.26 40.74 0.90Q41.83 1.54 42.48 2.60Q43.13 3.67 43.13 5.02L43.13 5.02Q43.13 5.90 42.86 6.61Q42.60 7.32 42.24 7.81Q41.88 8.30 41.59 8.54L41.59 8.54Q42.89 9.98 42.89 11.93L42.89 11.93L42.91 16.85Q42.91 16.97 42.79 16.97L42.79 16.97L40.08 16.97Q39.98 16.97 39.98 16.90L39.98 16.90L39.98 11.93Q39.98 11.06 39.37 10.43Q38.76 9.79 37.87 9.79L37.87 9.79L36.29 9.79L36.26 16.85Q36.26 16.97 36.17 16.97L36.17 16.97ZM36.29 3.14L36.29 6.91L38.35 6.91Q39.10 6.91 39.67 6.36Q40.25 5.81 40.25 5.02L40.25 5.02Q40.25 4.25 39.68 3.70Q39.12 3.14 38.35 3.14L38.35 3.14L36.29 3.14ZM47.54 16.97L45.14 16.97Q44.95 16.97 44.95 16.80L44.95 16.80L44.93 0.46Q44.93 0.26 45.12 0.26L45.12 0.26L47.28 0.26L51.34 9.72L51.22 0.46Q51.22 0.26 51.43 0.26L51.43 0.26L53.81 0.26Q53.95 0.26 53.95 0.46L53.95 0.46L53.98 16.82Q53.98 16.97 53.86 16.97L53.86 16.97L51.74 16.97L47.59 8.14L47.76 16.78Q47.76 16.97 47.54 16.97L47.54 16.97ZM55.25 16.85L55.25 16.85L58.22 0.36Q58.25 0.26 58.34 0.26L58.34 0.26L61.82 0.26Q61.92 0.26 61.94 0.36L61.94 0.36L64.80 16.85Q64.82 16.97 64.70 16.97L64.70 16.97L62.04 16.97Q61.94 16.97 61.92 16.85L61.92 16.85L61.66 15.10L58.39 15.10L58.13 16.85Q58.10 16.97 58.01 16.97L58.01 16.97L55.34 16.97Q55.25 16.97 55.25 16.85ZM59.95 5.78L58.87 12.53L61.18 12.53L60.19 5.78L60.05 4.90L59.95 5.78ZM74.16 16.97L66.41 16.97Q66.31 16.97 66.31 16.85L66.31 16.85L66.34 0.38Q66.34 0.26 66.46 0.26L66.46 0.26L69.12 0.26Q69.24 0.26 69.24 0.38L69.24 0.38L69.22 14.02L74.16 14.02Q74.28 14.02 74.28 14.14L74.28 14.14L74.28 16.85Q74.28 16.97 74.16 16.97L74.16 16.97ZM78.17 16.85L78.17 16.85L81.14 0.36Q81.17 0.26 81.26 0.26L81.26 0.26L84.74 0.26Q84.84 0.26 84.86 0.36L84.86 0.36L87.72 16.85Q87.74 16.97 87.62 16.97L87.62 16.97L84.96 16.97Q84.86 16.97 84.84 16.85L84.84 16.85L84.58 15.10L81.31 15.10L81.05 16.85Q81.02 16.97 80.93 16.97L80.93 16.97L78.26 16.97Q78.17 16.97 78.17 16.85ZM82.87 5.78L81.79 12.53L84.10 12.53L83.11 5.78L82.97 4.90L82.87 5.78ZM92.04 16.97L89.35 16.97Q89.23 16.97 89.23 16.85L89.23 16.85L89.28 0.36Q89.28 0.26 89.38 0.26L89.38 0.26L93.98 0.26Q96.19 0.26 97.48 1.61Q98.76 2.95 98.76 5.26L98.76 5.26Q98.76 6.96 98.09 8.21Q97.42 9.46 96.34 10.13Q95.26 10.80 93.98 10.80L93.98 10.80L92.16 10.80L92.16 16.85Q92.16 16.97 92.04 16.97L92.04 16.97ZM92.16 3.14L92.16 7.90L93.98 7.90Q94.75 7.90 95.32 7.16Q95.88 6.43 95.88 5.26L95.88 5.26Q95.88 4.32 95.38 3.72Q94.87 3.12 93.98 3.12L93.98 3.12L92.16 3.14ZM103.20 16.97L100.51 16.97Q100.39 16.97 100.39 16.85L100.39 16.85L100.44 0.36Q100.44 0.26 100.54 0.26L100.54 0.26L105.14 0.26Q107.35 0.26 108.64 1.61Q109.92 2.95 109.92 5.26L109.92 5.26Q109.92 6.96 109.25 8.21Q108.58 9.46 107.50 10.13Q106.42 10.80 105.14 10.80L105.14 10.80L103.32 10.80L103.32 16.85Q103.32 16.97 103.20 16.97L103.20 16.97ZM103.32 3.14L103.32 7.90L105.14 7.90Q105.91 7.90 106.48 7.16Q107.04 6.43 107.04 5.26L107.04 5.26Q107.04 4.32 106.54 3.72Q106.03 3.12 105.14 3.12L105.14 3.12L103.32 3.14Z" transform="translate(51, 5.897)"></path></svg>